<svg className="obenLogo" width="100" viewBox="0 0 470 169" fill="none" xmlns="http://www.w3.org/2000/svg">
                  <path d="M15.3984 31.625H21.375L61.875 125.844L102.375 31.625H108.352L64.0547 134H59.625L15.3984 31.625ZM13.6406 31.625H18.9844L19.3359 86.3984V134H13.6406V31.625ZM104.906 31.625H110.25V134H104.555V86.3984L104.906 31.625ZM182.059 97.2969V94.625C182.059 89.0469 182.856 83.9375 184.449 79.2969C186.09 74.6562 188.387 70.6484 191.34 67.2734C194.293 63.8516 197.809 61.2031 201.887 59.3281C206.012 57.4531 210.582 56.5156 215.598 56.5156C220.613 56.5156 225.184 57.4531 229.309 59.3281C233.434 61.2031 236.973 63.8516 239.926 67.2734C242.926 70.6484 245.223 74.6562 246.817 79.2969C248.41 83.9375 249.207 89.0469 249.207 94.625V97.2969C249.207 102.875 248.41 107.984 246.817 112.625C245.223 117.266 242.949 121.297 239.996 124.719C237.043 128.094 233.504 130.719 229.379 132.594C225.301 134.469 220.754 135.406 215.738 135.406C210.676 135.406 206.082 134.469 201.957 132.594C197.879 130.719 194.34 128.094 191.34 124.719C188.387 121.297 186.09 117.266 184.449 112.625C182.856 107.984 182.059 102.875 182.059 97.2969ZM187.684 94.625V97.2969C187.684 101.703 188.293 105.898 189.512 109.883C190.777 113.82 192.606 117.336 194.996 120.43C197.387 123.477 200.317 125.891 203.785 127.672C207.254 129.406 211.238 130.273 215.738 130.273C220.145 130.273 224.082 129.406 227.551 127.672C231.02 125.891 233.926 123.477 236.27 120.43C238.66 117.336 240.465 113.82 241.684 109.883C242.949 105.898 243.582 101.703 243.582 97.2969V94.625C243.582 90.3125 242.949 86.1875 241.684 82.25C240.465 78.3125 238.66 74.7969 236.27 71.7031C233.879 68.6094 230.949 66.1719 227.481 64.3906C224.012 62.5625 220.051 61.6484 215.598 61.6484C211.145 61.6484 207.184 62.5625 203.715 64.3906C200.293 66.1719 197.363 68.6094 194.926 71.7031C192.535 74.7969 190.731 78.3125 189.512 82.25C188.293 86.1875 187.684 90.3125 187.684 94.625ZM195.699 34.9297C195.699 33.6172 196.121 32.5156 196.965 31.625C197.809 30.7344 198.91 30.2891 200.27 30.2891C201.629 30.2891 202.754 30.7344 203.645 31.625C204.535 32.5156 204.981 33.6172 204.981 34.9297C204.981 36.1953 204.535 37.2734 203.645 38.1641C202.754 39.0078 201.629 39.4297 200.27 39.4297C198.91 39.4297 197.809 39.0078 196.965 38.1641C196.121 37.2734 195.699 36.1953 195.699 34.9297ZM226.777 34.9297C226.777 33.6641 227.199 32.5859 228.043 31.6953C228.934 30.7578 230.059 30.2891 231.418 30.2891C232.731 30.2891 233.832 30.7578 234.723 31.6953C235.613 32.5859 236.059 33.6641 236.059 34.9297C236.059 36.1953 235.613 37.2734 234.723 38.1641C233.832 39.0547 232.731 39.5 231.418 39.5C230.059 39.5 228.934 39.0547 228.043 38.1641C227.199 37.2734 226.777 36.1953 226.777 34.9297ZM318.977 26H324.602V119.234L324.391 134H318.977V26ZM378.461 95.1875V96.6641C378.461 102.43 377.805 107.68 376.492 112.414C375.227 117.148 373.352 121.227 370.867 124.648C368.43 128.07 365.43 130.719 361.867 132.594C358.305 134.469 354.25 135.406 349.703 135.406C345.344 135.406 341.43 134.75 337.961 133.438C334.539 132.125 331.586 130.32 329.102 128.023C326.617 125.68 324.602 122.984 323.055 119.938C321.555 116.844 320.5 113.539 319.891 110.023V83.7969C320.688 79.8125 321.883 76.1797 323.477 72.8984C325.071 69.5703 327.086 66.6875 329.524 64.25C331.961 61.7656 334.844 59.8672 338.172 58.5547C341.547 57.1953 345.344 56.5156 349.563 56.5156C354.157 56.5156 358.235 57.4297 361.797 59.2578C365.407 61.0391 368.43 63.6172 370.867 66.9922C373.352 70.3203 375.227 74.375 376.492 79.1562C377.805 83.8906 378.461 89.2344 378.461 95.1875ZM372.766 96.6641V95.1875C372.766 90.4062 372.297 85.9766 371.36 81.8984C370.422 77.8203 368.969 74.2812 367 71.2812C365.078 68.2812 362.617 65.9375 359.617 64.25C356.617 62.5625 353.078 61.7188 349 61.7188C344.5 61.7188 340.703 62.4688 337.61 63.9688C334.563 65.4219 332.055 67.3203 330.086 69.6641C328.164 72.0078 326.641 74.5391 325.516 77.2578C324.438 79.9297 323.641 82.4609 323.125 84.8516V109.672C323.969 113.375 325.446 116.797 327.555 119.938C329.711 123.031 332.571 125.516 336.133 127.391C339.742 129.266 344.078 130.203 349.141 130.203C353.172 130.203 356.664 129.359 359.617 127.672C362.617 125.984 365.078 123.641 367 120.641C368.922 117.641 370.352 114.102 371.289 110.023C372.274 105.945 372.766 101.492 372.766 96.6641ZM456.809 26V134H451.184V26H456.809Z" fill="black" />
                </svg>